<svg xmlns="http://www.w3.org/2000/svg" width="720" height="420" viewBox="0 0 720 420" font-family="-apple-system, BlinkMacSystemFont, 'Segoe UI', Helvetica, Arial, 'DejaVu Sans', sans-serif">
  <rect width="720" height="420" fill="#fbfbf9"/>
  <text x="20.0" y="30.0" font-size="16" fill="#24292f" text-anchor="start" font-weight="600">Comparisons as n grows (log-log axes)</text>
  <text x="20.0" y="50.0" font-size="11.5" fill="#6e7781" text-anchor="start" font-weight="400">Slope = complexity exponent (2.0 means n^2, about 1.1 means n log n)</text>
  <line x1="78.0" y1="362.0" x2="696.0" y2="362.0" stroke="#dfe1e4" stroke-width="1" stroke-dasharray="none"/>
  <text x="68.0" y="366.0" font-size="10.5" fill="#6e7781" text-anchor="end" font-weight="400">10K</text>
  <line x1="78.0" y1="307.2" x2="696.0" y2="307.2" stroke="#dfe1e4" stroke-width="1" stroke-dasharray="none"/>
  <text x="68.0" y="311.2" font-size="10.5" fill="#6e7781" text-anchor="end" font-weight="400">100K</text>
  <line x1="78.0" y1="252.4" x2="696.0" y2="252.4" stroke="#dfe1e4" stroke-width="1" stroke-dasharray="none"/>
  <text x="68.0" y="256.4" font-size="10.5" fill="#6e7781" text-anchor="end" font-weight="400">1M</text>
  <line x1="78.0" y1="197.6" x2="696.0" y2="197.6" stroke="#dfe1e4" stroke-width="1" stroke-dasharray="none"/>
  <text x="68.0" y="201.6" font-size="10.5" fill="#6e7781" text-anchor="end" font-weight="400">10M</text>
  <line x1="78.0" y1="142.8" x2="696.0" y2="142.8" stroke="#dfe1e4" stroke-width="1" stroke-dasharray="none"/>
  <text x="68.0" y="146.8" font-size="10.5" fill="#6e7781" text-anchor="end" font-weight="400">100M</text>
  <line x1="78.0" y1="88.0" x2="696.0" y2="88.0" stroke="#dfe1e4" stroke-width="1" stroke-dasharray="none"/>
  <text x="68.0" y="92.0" font-size="10.5" fill="#6e7781" text-anchor="end" font-weight="400">1B</text>
  <line x1="78.0" y1="88.0" x2="78.0" y2="362.0" stroke="#dfe1e4" stroke-width="1" stroke-dasharray="2 4"/>
  <text x="78.0" y="380.0" font-size="10.5" fill="#6e7781" text-anchor="middle" font-weight="400">1,000</text>
  <line x1="232.5" y1="88.0" x2="232.5" y2="362.0" stroke="#dfe1e4" stroke-width="1" stroke-dasharray="2 4"/>
  <text x="232.5" y="380.0" font-size="10.5" fill="#6e7781" text-anchor="middle" font-weight="400">2,000</text>
  <line x1="387.0" y1="88.0" x2="387.0" y2="362.0" stroke="#dfe1e4" stroke-width="1" stroke-dasharray="2 4"/>
  <text x="387.0" y="380.0" font-size="10.5" fill="#6e7781" text-anchor="middle" font-weight="400">4,000</text>
  <line x1="541.5" y1="88.0" x2="541.5" y2="362.0" stroke="#dfe1e4" stroke-width="1" stroke-dasharray="2 4"/>
  <text x="541.5" y="380.0" font-size="10.5" fill="#6e7781" text-anchor="middle" font-weight="400">8,000</text>
  <line x1="696.0" y1="88.0" x2="696.0" y2="362.0" stroke="#dfe1e4" stroke-width="1" stroke-dasharray="2 4"/>
  <text x="696.0" y="380.0" font-size="10.5" fill="#6e7781" text-anchor="middle" font-weight="400">16,000</text>
  <line x1="78.0" y1="362.0" x2="696.0" y2="362.0" stroke="#6e7781" stroke-width="1" stroke-dasharray="none"/>
  <line x1="78.0" y1="88.0" x2="78.0" y2="362.0" stroke="#6e7781" stroke-width="1" stroke-dasharray="none"/>
  <text x="387.0" y="406.0" font-size="11.5" fill="#6e7781" text-anchor="middle" font-weight="400">n (elements)</text>
  <text x="20.0" y="74.0" font-size="11.5" fill="#6e7781" text-anchor="start" font-weight="400">compares</text>
  <polyline points="78.0,268.9 232.5,235.9 387.0,202.9 541.5,169.9 696.0,136.9" fill="none" stroke="#E69F00" stroke-width="2.2" stroke-dasharray="7 4" stroke-linejoin="round" stroke-linecap="round"/>
  <circle cx="78.0" cy="268.9" r="3.4" fill="#E69F00"/>
  <circle cx="232.5" cy="235.9" r="3.4" fill="#E69F00"/>
  <circle cx="387.0" cy="202.9" r="3.4" fill="#E69F00"/>
  <circle cx="541.5" cy="169.9" r="3.4" fill="#E69F00"/>
  <circle cx="696.0" cy="136.9" r="3.4" fill="#E69F00"/>
  <text x="690.0" y="125.9" font-size="11" fill="#E69F00" text-anchor="end" font-weight="600">slope 2.00</text>
  <polyline points="78.0,355.6 232.5,337.2 387.0,318.1 541.5,300.1 696.0,282.2" fill="none" stroke="#0072B2" stroke-width="2.2" stroke-dasharray="none" stroke-linejoin="round" stroke-linecap="round"/>
  <circle cx="78.0" cy="355.6" r="3.4" fill="#0072B2"/>
  <circle cx="232.5" cy="337.2" r="3.4" fill="#0072B2"/>
  <circle cx="387.0" cy="318.1" r="3.4" fill="#0072B2"/>
  <circle cx="541.5" cy="300.1" r="3.4" fill="#0072B2"/>
  <circle cx="696.0" cy="282.2" r="3.4" fill="#0072B2"/>
  <text x="690.0" y="271.2" font-size="11" fill="#0072B2" text-anchor="end" font-weight="600">slope 1.11</text>
  <polyline points="78.0,360.2 232.5,340.7 387.0,321.5 541.5,302.5 696.0,283.9" fill="none" stroke="#009E73" stroke-width="2.2" stroke-dasharray="2 3" stroke-linejoin="round" stroke-linecap="round"/>
  <circle cx="78.0" cy="360.2" r="3.4" fill="#009E73"/>
  <circle cx="232.5" cy="340.7" r="3.4" fill="#009E73"/>
  <circle cx="387.0" cy="321.5" r="3.4" fill="#009E73"/>
  <circle cx="541.5" cy="302.5" r="3.4" fill="#009E73"/>
  <circle cx="696.0" cy="283.9" r="3.4" fill="#009E73"/>
  <text x="690.0" y="244.9" font-size="11" fill="#009E73" text-anchor="end" font-weight="600">slope 1.16</text>
  <line x1="78.0" y1="386.0" x2="100.0" y2="386.0" stroke="#E69F00" stroke-width="2.4" stroke-dasharray="7 4"/>
  <circle cx="89.0" cy="386.0" r="3" fill="#E69F00"/>
  <text x="106.0" y="390.0" font-size="11.5" fill="#24292f" text-anchor="start" font-weight="400">bubbleSort</text>
  <line x1="190.0" y1="386.0" x2="212.0" y2="386.0" stroke="#0072B2" stroke-width="2.4" stroke-dasharray="none"/>
  <circle cx="201.0" cy="386.0" r="3" fill="#0072B2"/>
  <text x="218.0" y="390.0" font-size="11.5" fill="#24292f" text-anchor="start" font-weight="400">quickSort</text>
  <line x1="295.4" y1="386.0" x2="317.4" y2="386.0" stroke="#009E73" stroke-width="2.4" stroke-dasharray="2 3"/>
  <circle cx="306.4" cy="386.0" r="3" fill="#009E73"/>
  <text x="323.4" y="390.0" font-size="11.5" fill="#24292f" text-anchor="start" font-weight="400">treeSort</text>
</svg>
