<svg xmlns="http://www.w3.org/2000/svg" width="720" height="420" viewBox="0 0 720 420" font-family="-apple-system, BlinkMacSystemFont, 'Segoe UI', Helvetica, Arial, 'DejaVu Sans', sans-serif">
  <rect width="720" height="420" fill="#fbfbf9"/>
  <text x="20.0" y="30.0" font-size="16" fill="#24292f" text-anchor="start" font-weight="600">Recursion depth / tree height by input shape (log axis)</text>
  <text x="20.0" y="50.0" font-size="11.5" fill="#6e7781" text-anchor="start" font-weight="400">n = 4,000. Bubble is always 1, quick stays near log2 n, the tree follows the input</text>
  <line x1="78.0" y1="358.0" x2="696.0" y2="358.0" stroke="#dfe1e4" stroke-width="1" stroke-dasharray="none"/>
  <text x="68.0" y="362.0" font-size="10.5" fill="#6e7781" text-anchor="end" font-weight="400">1</text>
  <line x1="78.0" y1="290.5" x2="696.0" y2="290.5" stroke="#dfe1e4" stroke-width="1" stroke-dasharray="none"/>
  <text x="68.0" y="294.5" font-size="10.5" fill="#6e7781" text-anchor="end" font-weight="400">10</text>
  <line x1="78.0" y1="223.0" x2="696.0" y2="223.0" stroke="#dfe1e4" stroke-width="1" stroke-dasharray="none"/>
  <text x="68.0" y="227.0" font-size="10.5" fill="#6e7781" text-anchor="end" font-weight="400">100</text>
  <line x1="78.0" y1="155.5" x2="696.0" y2="155.5" stroke="#dfe1e4" stroke-width="1" stroke-dasharray="none"/>
  <text x="68.0" y="159.5" font-size="10.5" fill="#6e7781" text-anchor="end" font-weight="400">1K</text>
  <line x1="78.0" y1="88.0" x2="696.0" y2="88.0" stroke="#dfe1e4" stroke-width="1" stroke-dasharray="none"/>
  <text x="68.0" y="92.0" font-size="10.5" fill="#6e7781" text-anchor="end" font-weight="400">10K</text>
  <line x1="78.0" y1="358.0" x2="696.0" y2="358.0" stroke="#6e7781" stroke-width="1" stroke-dasharray="none"/>
  <text x="20.0" y="74.0" font-size="11.5" fill="#6e7781" text-anchor="start" font-weight="400">depth / height</text>
  <rect x="97.7" y="358.0" width="25.1" height="0.8" fill="#E69F00"/>
  <text x="110.2" y="353.0" font-size="9.5" fill="#6e7781" text-anchor="middle" font-weight="400">1</text>
  <rect x="125.8" y="293.6" width="25.1" height="64.4" fill="#0072B2"/>
  <text x="138.3" y="288.6" font-size="9.5" fill="#6e7781" text-anchor="middle" font-weight="400">9</text>
  <rect x="153.8" y="261.4" width="25.1" height="96.6" fill="#009E73"/>
  <text x="166.4" y="256.4" font-size="9.5" fill="#6e7781" text-anchor="middle" font-weight="400">27</text>
  <text x="139.8" y="376.0" font-size="11.5" fill="#24292f" text-anchor="middle" font-weight="400">random</text>
  <rect x="221.3" y="358.0" width="25.1" height="0.8" fill="#E69F00"/>
  <text x="233.8" y="353.0" font-size="9.5" fill="#6e7781" text-anchor="middle" font-weight="400">1</text>
  <rect x="249.4" y="285.2" width="25.1" height="72.8" fill="#0072B2"/>
  <text x="261.9" y="280.2" font-size="9.5" fill="#6e7781" text-anchor="middle" font-weight="400">12</text>
  <rect x="277.4" y="114.9" width="25.1" height="243.1" fill="#009E73"/>
  <text x="290.0" y="109.9" font-size="9.5" fill="#6e7781" text-anchor="middle" font-weight="400">4K</text>
  <text x="263.4" y="376.0" font-size="11.5" fill="#24292f" text-anchor="middle" font-weight="400">sorted</text>
  <rect x="344.9" y="358.0" width="25.1" height="0.8" fill="#E69F00"/>
  <text x="357.4" y="353.0" font-size="9.5" fill="#6e7781" text-anchor="middle" font-weight="400">1</text>
  <rect x="373.0" y="285.2" width="25.1" height="72.8" fill="#0072B2"/>
  <text x="385.5" y="280.2" font-size="9.5" fill="#6e7781" text-anchor="middle" font-weight="400">12</text>
  <rect x="401.0" y="114.9" width="25.1" height="243.1" fill="#009E73"/>
  <text x="413.6" y="109.9" font-size="9.5" fill="#6e7781" text-anchor="middle" font-weight="400">4K</text>
  <text x="387.0" y="376.0" font-size="11.5" fill="#24292f" text-anchor="middle" font-weight="400">reversed</text>
  <rect x="468.5" y="358.0" width="25.1" height="0.8" fill="#E69F00"/>
  <text x="481.0" y="353.0" font-size="9.5" fill="#6e7781" text-anchor="middle" font-weight="400">1</text>
  <rect x="496.6" y="285.2" width="25.1" height="72.8" fill="#0072B2"/>
  <text x="509.1" y="280.2" font-size="9.5" fill="#6e7781" text-anchor="middle" font-weight="400">12</text>
  <rect x="524.6" y="171.9" width="25.1" height="186.1" fill="#009E73"/>
  <text x="537.2" y="166.9" font-size="9.5" fill="#6e7781" text-anchor="middle" font-weight="400">572</text>
  <text x="510.6" y="376.0" font-size="11.5" fill="#24292f" text-anchor="middle" font-weight="400">nearly-sorted</text>
  <rect x="592.1" y="358.0" width="25.1" height="0.8" fill="#E69F00"/>
  <text x="604.6" y="353.0" font-size="9.5" fill="#6e7781" text-anchor="middle" font-weight="400">1</text>
  <rect x="620.2" y="287.7" width="25.1" height="70.3" fill="#0072B2"/>
  <text x="632.7" y="282.7" font-size="9.5" fill="#6e7781" text-anchor="middle" font-weight="400">11</text>
  <rect x="648.2" y="174.0" width="25.1" height="184.0" fill="#009E73"/>
  <text x="660.8" y="169.0" font-size="9.5" fill="#6e7781" text-anchor="middle" font-weight="400">532</text>
  <text x="634.2" y="376.0" font-size="11.5" fill="#24292f" text-anchor="middle" font-weight="400">few-unique</text>
  <line x1="78.0" y1="390.0" x2="100.0" y2="390.0" stroke="#E69F00" stroke-width="2.4" stroke-dasharray="7 4"/>
  <circle cx="89.0" cy="390.0" r="3" fill="#E69F00"/>
  <text x="106.0" y="394.0" font-size="11.5" fill="#24292f" text-anchor="start" font-weight="400">bubbleSort</text>
  <line x1="190.0" y1="390.0" x2="212.0" y2="390.0" stroke="#0072B2" stroke-width="2.4" stroke-dasharray="none"/>
  <circle cx="201.0" cy="390.0" r="3" fill="#0072B2"/>
  <text x="218.0" y="394.0" font-size="11.5" fill="#24292f" text-anchor="start" font-weight="400">quickSort</text>
  <line x1="295.4" y1="390.0" x2="317.4" y2="390.0" stroke="#009E73" stroke-width="2.4" stroke-dasharray="2 3"/>
  <circle cx="306.4" cy="390.0" r="3" fill="#009E73"/>
  <text x="323.4" y="394.0" font-size="11.5" fill="#24292f" text-anchor="start" font-weight="400">treeSort</text>
</svg>
