<svg xmlns="http://www.w3.org/2000/svg" width="720" height="420" viewBox="0 0 720 420" font-family="-apple-system, BlinkMacSystemFont, 'Segoe UI', Helvetica, Arial, 'DejaVu Sans', sans-serif">
  <rect width="720" height="420" fill="#fbfbf9"/>
  <text x="20.0" y="30.0" font-size="16" fill="#24292f" text-anchor="start" font-weight="600">Tree sort: plain BST vs self-balancing AVL (comparisons, log-log)</text>
  <text x="20.0" y="50.0" font-size="11.5" fill="#6e7781" text-anchor="start" font-weight="400">Sorted input turns the plain BST into a list (slope 2). AVL stays n log n</text>
  <line x1="78.0" y1="362.0" x2="696.0" y2="362.0" stroke="#dfe1e4" stroke-width="1" stroke-dasharray="none"/>
  <text x="68.0" y="366.0" font-size="10.5" fill="#6e7781" text-anchor="end" font-weight="400">1K</text>
  <line x1="78.0" y1="316.3" x2="696.0" y2="316.3" stroke="#dfe1e4" stroke-width="1" stroke-dasharray="none"/>
  <text x="68.0" y="320.3" font-size="10.5" fill="#6e7781" text-anchor="end" font-weight="400">10K</text>
  <line x1="78.0" y1="270.7" x2="696.0" y2="270.7" stroke="#dfe1e4" stroke-width="1" stroke-dasharray="none"/>
  <text x="68.0" y="274.7" font-size="10.5" fill="#6e7781" text-anchor="end" font-weight="400">100K</text>
  <line x1="78.0" y1="225.0" x2="696.0" y2="225.0" stroke="#dfe1e4" stroke-width="1" stroke-dasharray="none"/>
  <text x="68.0" y="229.0" font-size="10.5" fill="#6e7781" text-anchor="end" font-weight="400">1M</text>
  <line x1="78.0" y1="179.3" x2="696.0" y2="179.3" stroke="#dfe1e4" stroke-width="1" stroke-dasharray="none"/>
  <text x="68.0" y="183.3" font-size="10.5" fill="#6e7781" text-anchor="end" font-weight="400">10M</text>
  <line x1="78.0" y1="133.7" x2="696.0" y2="133.7" stroke="#dfe1e4" stroke-width="1" stroke-dasharray="none"/>
  <text x="68.0" y="137.7" font-size="10.5" fill="#6e7781" text-anchor="end" font-weight="400">100M</text>
  <line x1="78.0" y1="88.0" x2="696.0" y2="88.0" stroke="#dfe1e4" stroke-width="1" stroke-dasharray="none"/>
  <text x="68.0" y="92.0" font-size="10.5" fill="#6e7781" text-anchor="end" font-weight="400">1B</text>
  <line x1="78.0" y1="88.0" x2="78.0" y2="362.0" stroke="#dfe1e4" stroke-width="1" stroke-dasharray="2 4"/>
  <text x="78.0" y="380.0" font-size="10.5" fill="#6e7781" text-anchor="middle" font-weight="400">1,000</text>
  <line x1="232.5" y1="88.0" x2="232.5" y2="362.0" stroke="#dfe1e4" stroke-width="1" stroke-dasharray="2 4"/>
  <text x="232.5" y="380.0" font-size="10.5" fill="#6e7781" text-anchor="middle" font-weight="400">2,000</text>
  <line x1="387.0" y1="88.0" x2="387.0" y2="362.0" stroke="#dfe1e4" stroke-width="1" stroke-dasharray="2 4"/>
  <text x="387.0" y="380.0" font-size="10.5" fill="#6e7781" text-anchor="middle" font-weight="400">4,000</text>
  <line x1="541.5" y1="88.0" x2="541.5" y2="362.0" stroke="#dfe1e4" stroke-width="1" stroke-dasharray="2 4"/>
  <text x="541.5" y="380.0" font-size="10.5" fill="#6e7781" text-anchor="middle" font-weight="400">8,000</text>
  <line x1="696.0" y1="88.0" x2="696.0" y2="362.0" stroke="#dfe1e4" stroke-width="1" stroke-dasharray="2 4"/>
  <text x="696.0" y="380.0" font-size="10.5" fill="#6e7781" text-anchor="middle" font-weight="400">16,000</text>
  <line x1="78.0" y1="362.0" x2="696.0" y2="362.0" stroke="#6e7781" stroke-width="1" stroke-dasharray="none"/>
  <line x1="78.0" y1="88.0" x2="78.0" y2="362.0" stroke="#6e7781" stroke-width="1" stroke-dasharray="none"/>
  <text x="387.0" y="406.0" font-size="11.5" fill="#6e7781" text-anchor="middle" font-weight="400">n (elements)</text>
  <text x="20.0" y="74.0" font-size="11.5" fill="#6e7781" text-anchor="start" font-weight="400">compares</text>
  <polyline points="78.0,314.8 232.5,298.6 387.0,282.6 541.5,266.8 696.0,251.3" fill="none" stroke="#009E73" stroke-width="2.2" stroke-dasharray="none" stroke-linejoin="round" stroke-linecap="round"/>
  <circle cx="78.0" cy="314.8" r="3.4" fill="#009E73"/>
  <circle cx="232.5" cy="298.6" r="3.4" fill="#009E73"/>
  <circle cx="387.0" cy="282.6" r="3.4" fill="#009E73"/>
  <circle cx="541.5" cy="266.8" r="3.4" fill="#009E73"/>
  <circle cx="696.0" cy="251.3" r="3.4" fill="#009E73"/>
  <text x="690.0" y="240.3" font-size="11" fill="#009E73" text-anchor="end" font-weight="600">slope 1.16</text>
  <polyline points="78.0,318.9 232.5,303.0 387.0,287.3 541.5,271.8 696.0,256.5" fill="none" stroke="#8c4799" stroke-width="2.2" stroke-dasharray="none" stroke-linejoin="round" stroke-linecap="round"/>
  <circle cx="78.0" cy="318.9" r="3.4" fill="#8c4799"/>
  <circle cx="232.5" cy="303.0" r="3.4" fill="#8c4799"/>
  <circle cx="387.0" cy="287.3" r="3.4" fill="#8c4799"/>
  <circle cx="541.5" cy="271.8" r="3.4" fill="#8c4799"/>
  <circle cx="696.0" cy="256.5" r="3.4" fill="#8c4799"/>
  <text x="690.0" y="217.5" font-size="11" fill="#8c4799" text-anchor="end" font-weight="600">slope 1.14</text>
  <polyline points="78.0,238.8 232.5,211.3 387.0,183.8 541.5,156.3 696.0,128.8" fill="none" stroke="#009E73" stroke-width="2.2" stroke-dasharray="7 4" stroke-linejoin="round" stroke-linecap="round"/>
  <circle cx="78.0" cy="238.8" r="3.4" fill="#009E73"/>
  <circle cx="232.5" cy="211.3" r="3.4" fill="#009E73"/>
  <circle cx="387.0" cy="183.8" r="3.4" fill="#009E73"/>
  <circle cx="541.5" cy="156.3" r="3.4" fill="#009E73"/>
  <circle cx="696.0" cy="128.8" r="3.4" fill="#009E73"/>
  <text x="690.0" y="117.8" font-size="11" fill="#009E73" text-anchor="end" font-weight="600">slope 2.00</text>
  <polyline points="78.0,318.5 232.5,302.6 387.0,287.0 541.5,271.5 696.0,256.2" fill="none" stroke="#8c4799" stroke-width="2.2" stroke-dasharray="7 4" stroke-linejoin="round" stroke-linecap="round"/>
  <circle cx="78.0" cy="318.5" r="3.4" fill="#8c4799"/>
  <circle cx="232.5" cy="302.6" r="3.4" fill="#8c4799"/>
  <circle cx="387.0" cy="287.0" r="3.4" fill="#8c4799"/>
  <circle cx="541.5" cy="271.5" r="3.4" fill="#8c4799"/>
  <circle cx="696.0" cy="256.2" r="3.4" fill="#8c4799"/>
  <text x="690.0" y="203.2" font-size="11" fill="#8c4799" text-anchor="end" font-weight="600">slope 1.13</text>
  <line x1="78.0" y1="386.0" x2="100.0" y2="386.0" stroke="#009E73" stroke-width="2.4" stroke-dasharray="none"/>
  <circle cx="89.0" cy="386.0" r="3" fill="#009E73"/>
  <text x="106.0" y="390.0" font-size="11.5" fill="#24292f" text-anchor="start" font-weight="400">treeSort (random)</text>
  <line x1="236.2" y1="386.0" x2="258.2" y2="386.0" stroke="#8c4799" stroke-width="2.4" stroke-dasharray="none"/>
  <circle cx="247.2" cy="386.0" r="3" fill="#8c4799"/>
  <text x="264.2" y="390.0" font-size="11.5" fill="#24292f" text-anchor="start" font-weight="400">treeSortAVL (random)</text>
  <line x1="414.2" y1="386.0" x2="436.2" y2="386.0" stroke="#009E73" stroke-width="2.4" stroke-dasharray="7 4"/>
  <circle cx="425.2" cy="386.0" r="3" fill="#009E73"/>
  <text x="442.2" y="390.0" font-size="11.5" fill="#24292f" text-anchor="start" font-weight="400">treeSort (sorted)</text>
  <line x1="572.4" y1="386.0" x2="594.4" y2="386.0" stroke="#8c4799" stroke-width="2.4" stroke-dasharray="7 4"/>
  <circle cx="583.4" cy="386.0" r="3" fill="#8c4799"/>
  <text x="600.4" y="390.0" font-size="11.5" fill="#24292f" text-anchor="start" font-weight="400">treeSortAVL (sorted)</text>
</svg>
